<svg width="16" height="24" viewBox="0 0 16 24" fill="none" xmlns="http://www.w3.org/2000/svg">
<path d="M15.6255 2.8214V0.405779C15.6255 0.196404 15.3849 0.0807789 15.2224 0.208904L1.13491 11.212C1.01522 11.3051 0.918364 11.4243 0.851742 11.5605C0.78512 11.6967 0.750488 11.8463 0.750488 11.998C0.750488 12.1496 0.78512 12.2992 0.851742 12.4354C0.918364 12.5716 1.01522 12.6908 1.13491 12.7839L15.2224 23.787C15.388 23.9152 15.6255 23.7995 15.6255 23.5902V21.1745C15.6255 21.0214 15.5537 20.8745 15.4349 20.7808L4.18491 11.9995L15.4349 3.21515C15.5537 3.1214 15.6255 2.97453 15.6255 2.8214Z" fill="#8C8C8C"/>
</svg>
