<svg width="32" height="32" viewBox="0 0 32 32" fill="none" xmlns="http://www.w3.org/2000/svg">
<g clip-path="url(#clip0)">
<path d="M32 16.032C32 18.9333 31.2853 21.6107 29.856 24.064C28.4267 26.5173 26.4853 28.4587 24.032 29.888C21.5787 31.3173 18.9013 32.032 16 32.032C13.0987 32.032 10.4213 31.3173 7.968 29.888C5.51467 28.4587 3.57333 26.5173 2.144 24.064C0.714667 21.6107 0 18.9333 0 16.032C0 13.1306 0.714667 10.4533 2.144 7.99998C3.57333 5.54665 5.51467 3.60532 7.968 2.17598C10.4213 0.746649 13.0987 0.0319824 16 0.0319824C18.9013 0.0319824 21.5787 0.746649 24.032 2.17598C26.4853 3.60532 28.4267 5.54665 29.856 7.99998C31.2853 10.4533 32 13.1306 32 16.032ZM21.152 23.456L23.424 21.184L18.272 16.032L23.424 10.88L21.152 8.60798L16 13.76L10.848 8.60798L8.576 10.88L13.728 16.032L8.576 21.184L10.848 23.456L16 18.304L21.152 23.456Z" fill="#868686"/>
</g>
<defs>
<clipPath id="clip0">
<rect width="32" height="32" fill="white"/>
</clipPath>
</defs>
</svg>
