<svg width="16" height="18" viewBox="0 0 16 18" fill="none" xmlns="http://www.w3.org/2000/svg">
<path d="M15.8123 7.95864H14.0042C13.9016 7.95864 13.8033 8.00328 13.7341 8.0814L8.84798 13.7131V1.1439C8.84798 1.04569 8.76762 0.965332 8.66941 0.965332H7.33012C7.23191 0.965332 7.15155 1.04569 7.15155 1.1439V13.7131L2.26539 8.0814C2.19843 8.00328 2.10021 7.95864 1.9953 7.95864H0.187266C0.0354798 7.95864 -0.0471095 8.13944 0.053337 8.25328L7.46182 16.7912C7.52879 16.8685 7.61158 16.9304 7.70459 16.9729C7.79759 17.0154 7.89864 17.0373 8.00088 17.0373C8.10312 17.0373 8.20417 17.0154 8.29718 16.9729C8.39018 16.9304 8.47298 16.8685 8.53994 16.7912L15.9462 8.25328C16.0466 8.13721 15.9641 7.95864 15.8123 7.95864Z" fill="#2F80ED"/>
</svg>
