<svg width="22" height="22" viewBox="0 0 22 22" fill="none" xmlns="http://www.w3.org/2000/svg">
<path d="M7.26772 2.94425H7.07129C7.17933 2.94425 7.26772 2.85586 7.26772 2.74782V2.94425H14.732V2.74782C14.732 2.85586 14.8204 2.94425 14.9284 2.94425H14.732V4.71211H16.4999V2.74782C16.4999 1.88108 15.7952 1.17639 14.9284 1.17639H7.07129C6.20455 1.17639 5.49986 1.88108 5.49986 2.74782V4.71211H7.26772V2.94425ZM19.6427 4.71211H2.357C1.92241 4.71211 1.57129 5.06322 1.57129 5.49782V6.28354C1.57129 6.39157 1.65968 6.47996 1.76772 6.47996H3.25075L3.85723 19.3215C3.89651 20.1588 4.58892 20.8193 5.4262 20.8193H16.5735C17.4133 20.8193 18.1032 20.1612 18.1425 19.3215L18.749 6.47996H20.232C20.34 6.47996 20.4284 6.39157 20.4284 6.28354V5.49782C20.4284 5.06322 20.0773 4.71211 19.6427 4.71211ZM16.3845 19.0514H5.61526L5.02107 6.47996H16.9787L16.3845 19.0514Z" fill="#828282"/>
</svg>
