<svg width="20" height="20" viewBox="0 0 20 20" fill="none" xmlns="http://www.w3.org/2000/svg">
<g clip-path="url(#clip0)">
<path d="M10 0C4.47768 0 0 4.47768 0 10C0 15.5223 4.47768 20 10 20C15.5223 20 20 15.5223 20 10C20 4.47768 15.5223 0 10 0ZM10 18.3036C5.41518 18.3036 1.69643 14.5848 1.69643 10C1.69643 5.41518 5.41518 1.69643 10 1.69643C14.5848 1.69643 18.3036 5.41518 18.3036 10C18.3036 14.5848 14.5848 18.3036 10 18.3036ZM14.4286 5.17634C14.3412 5.14218 14.2479 5.12558 14.154 5.1275C14.0602 5.12941 13.9676 5.1498 13.8817 5.1875L7.83259 7.83482L5.1875 13.8839C5.10714 14.067 5.10714 14.2746 5.1875 14.4576C5.26339 14.6317 5.40402 14.7679 5.58259 14.8371C5.66741 14.8705 5.75446 14.8862 5.84375 14.8862C5.94196 14.8862 6.03795 14.8661 6.12946 14.8259L12.1786 12.1786L14.8237 6.12946C14.8623 6.04118 14.8826 5.94602 14.8835 5.84967C14.8845 5.75333 14.8659 5.65779 14.829 5.56879C14.7921 5.47978 14.7377 5.39915 14.6688 5.33171C14.6 5.26427 14.5183 5.21143 14.4286 5.17634ZM11.4464 10.5L12.0312 11.0848L11.0848 12.0312L10.5 11.4464L7.05357 12.9554L8.56027 9.50893L7.99107 8.9375L8.9375 7.99107L9.5067 8.56027L12.9554 7.05357L11.4464 10.5ZM8.9375 7.99107L7.99107 8.9375L8.56027 9.50893L10.5 11.4464L11.0848 12.0312L12.0312 11.0848L11.4464 10.5L9.50893 8.56027L8.9375 7.99107Z" fill="#1890FF"/>
</g>
<defs>
<clipPath id="clip0">
<rect width="20" height="20" fill="white"/>
</clipPath>
</defs>
</svg>
