<svg width="20" height="20" viewBox="0 0 20 20" fill="none" xmlns="http://www.w3.org/2000/svg">
<g clip-path="url(#clip0)">
<path d="M19.6999 9.84241L11.0749 1.22188L10.4967 0.64375C10.365 0.512895 10.1869 0.439453 10.0012 0.439453C9.81553 0.439453 9.6374 0.512895 9.50567 0.64375L0.302548 9.84241C0.167573 9.97686 0.0608994 10.137 -0.0111751 10.3133C-0.0832496 10.4897 -0.119265 10.6787 -0.117095 10.8692C-0.108166 11.6549 0.545851 12.2821 1.33157 12.2821H2.28023V19.5522H17.7222V12.2821H18.6909C19.0726 12.2821 19.432 12.1326 19.7021 11.8625C19.8351 11.7299 19.9405 11.5723 20.0121 11.3987C20.0838 11.2252 20.1203 11.0391 20.1195 10.8513C20.1195 10.4719 19.97 10.1125 19.6999 9.84241ZM11.2512 17.9451H8.75121V13.3915H11.2512V17.9451ZM16.115 10.675V17.9451H12.6798V12.8558C12.6798 12.3625 12.2802 11.9629 11.7869 11.9629H8.21549C7.72219 11.9629 7.32264 12.3625 7.32264 12.8558V17.9451H3.88737V10.675H1.74451L10.0034 2.42277L10.5191 2.93839L18.2601 10.675H16.115Z" fill="#8C8C8C"/>
</g>
<defs>
<clipPath id="clip0">
<rect width="20" height="20" fill="white"/>
</clipPath>
</defs>
</svg>
