<svg width="20" height="20" viewBox="0 0 20 20" fill="none" xmlns="http://www.w3.org/2000/svg">
<g clip-path="url(#clip0)">
<path d="M17.1426 0H2.85686C2.46177 0 2.14258 0.319196 2.14258 0.714286V19.2857C2.14258 19.6808 2.46177 20 2.85686 20H17.1426C17.5377 20 17.8569 19.6808 17.8569 19.2857V0.714286C17.8569 0.319196 17.5377 0 17.1426 0ZM11.339 1.60714H13.4819V6.29241L12.4439 5.53571L11.339 6.32589V1.60714ZM16.2497 18.3929H3.74972V1.60714H9.99972V8.23438C9.99972 8.30804 10.022 8.3817 10.0667 8.44197C10.0938 8.48027 10.1282 8.51283 10.168 8.53774C10.2077 8.56266 10.252 8.57944 10.2983 8.58712C10.3446 8.5948 10.392 8.59323 10.4377 8.58249C10.4833 8.57175 10.5264 8.55206 10.5645 8.52455L12.435 7.1875L14.252 8.51339C14.3122 8.55804 14.3859 8.58259 14.4618 8.58259C14.6582 8.58259 14.8189 8.42188 14.8189 8.22545V1.60714H16.2475V18.3929H16.2497Z" fill="#1890FF"/>
</g>
<defs>
<clipPath id="clip0">
<rect width="20" height="20" fill="white"/>
</clipPath>
</defs>
</svg>
