<svg width="40" height="40" viewBox="0 0 40 40" fill="none" xmlns="http://www.w3.org/2000/svg">
<path d="M20 2.5C10.3359 2.5 2.5 10.3359 2.5 20C2.5 29.6641 10.3359 37.5 20 37.5C29.6641 37.5 37.5 29.6641 37.5 20C37.5 10.3359 29.6641 2.5 20 2.5ZM20 34.5312C11.9766 34.5312 5.46875 28.0234 5.46875 20C5.46875 11.9766 11.9766 5.46875 20 5.46875C28.0234 5.46875 34.5312 11.9766 34.5312 20C34.5312 28.0234 28.0234 34.5312 20 34.5312ZM16.5625 13.75H14.6875C14.5156 13.75 14.375 13.8906 14.375 14.0625V25.9375C14.375 26.1094 14.5156 26.25 14.6875 26.25H16.5625C16.7344 26.25 16.875 26.1094 16.875 25.9375V14.0625C16.875 13.8906 16.7344 13.75 16.5625 13.75ZM25.3125 13.75H23.4375C23.2656 13.75 23.125 13.8906 23.125 14.0625V25.9375C23.125 26.1094 23.2656 26.25 23.4375 26.25H25.3125C25.4844 26.25 25.625 26.1094 25.625 25.9375V14.0625C25.625 13.8906 25.4844 13.75 25.3125 13.75Z" fill="#4F4F4F"/>
</svg>
