<svg width="40" height="40" viewBox="0 0 40 40" fill="none" xmlns="http://www.w3.org/2000/svg">
<path d="M20 2.5C10.3359 2.5 2.5 10.3359 2.5 20C2.5 29.6641 10.3359 37.5 20 37.5C29.6641 37.5 37.5 29.6641 37.5 20C37.5 10.3359 29.6641 2.5 20 2.5ZM20 34.5312C11.9766 34.5312 5.46875 28.0234 5.46875 20C5.46875 11.9766 11.9766 5.46875 20 5.46875C28.0234 5.46875 34.5312 11.9766 34.5312 20C34.5312 28.0234 28.0234 34.5312 20 34.5312Z" fill="#4F4F4F"/>
<path d="M28.1006 19.4952L16.5342 11.0967C16.4414 11.0287 16.3316 10.9878 16.2169 10.9786C16.1023 10.9693 15.9873 10.9921 15.8849 11.0443C15.7824 11.0966 15.6964 11.1763 15.6366 11.2745C15.5768 11.3727 15.5454 11.4856 15.5459 11.6006V28.3975C15.5459 28.9092 16.124 29.1983 16.5342 28.9014L28.1006 20.503C28.1805 20.4454 28.2455 20.3697 28.2903 20.2821C28.3352 20.1945 28.3586 20.0975 28.3586 19.9991C28.3586 19.9006 28.3352 19.8036 28.2903 19.716C28.2455 19.6284 28.1805 19.5527 28.1006 19.4952ZM18.0381 24.7295V15.2686L24.5498 19.9991L18.0381 24.7295Z" fill="#4F4F4F"/>
</svg>
