<svg width="34" height="34" viewBox="0 0 34 34" fill="none" xmlns="http://www.w3.org/2000/svg">
<path d="M14.1666 25.4999C16.6811 25.4994 19.1232 24.6576 21.104 23.1086L27.3317 29.3363L29.3348 27.3331L23.1072 21.1054C24.657 19.1244 25.4993 16.6818 25.4999 14.1666C25.4999 7.91767 20.4155 2.83325 14.1666 2.83325C7.91767 2.83325 2.83325 7.91767 2.83325 14.1666C2.83325 20.4155 7.91767 25.4999 14.1666 25.4999ZM14.1666 5.66659C18.8543 5.66659 22.6666 9.47884 22.6666 14.1666C22.6666 18.8543 18.8543 22.6666 14.1666 22.6666C9.47884 22.6666 5.66659 18.8543 5.66659 14.1666C5.66659 9.47884 9.47884 5.66659 14.1666 5.66659Z" fill="#868686"/>
</svg>
