<svg width="23" height="22" viewBox="0 0 23 22" fill="none" xmlns="http://www.w3.org/2000/svg">
<path d="M17.3928 14.7321C16.693 14.7321 16.0473 14.9777 15.5414 15.3877L10.4539 11.7071C10.5391 11.2396 10.5391 10.7604 10.4539 10.2929L15.5414 6.61228C16.0473 7.02232 16.693 7.26786 17.3928 7.26786C19.0182 7.26786 20.3392 5.94688 20.3392 4.32143C20.3392 2.69598 19.0182 1.375 17.3928 1.375C15.7673 1.375 14.4464 2.69598 14.4464 4.32143C14.4464 4.60625 14.4856 4.87879 14.5618 5.13906L9.72962 8.63795C9.01265 7.68772 7.87337 7.07143 6.58922 7.07143C4.41868 7.07143 2.66064 8.82947 2.66064 11C2.66064 13.1705 4.41868 14.9286 6.58922 14.9286C7.87337 14.9286 9.01265 14.3123 9.72962 13.3621L14.5618 16.8609C14.4856 17.1212 14.4464 17.3962 14.4464 17.6786C14.4464 19.304 15.7673 20.625 17.3928 20.625C19.0182 20.625 20.3392 19.304 20.3392 17.6786C20.3392 16.0531 19.0182 14.7321 17.3928 14.7321ZM17.3928 3.04464C18.0975 3.04464 18.6696 3.61674 18.6696 4.32143C18.6696 5.02612 18.0975 5.59821 17.3928 5.59821C16.6881 5.59821 16.116 5.02612 16.116 4.32143C16.116 3.61674 16.6881 3.04464 17.3928 3.04464ZM6.58922 13.1607C5.39837 13.1607 4.4285 12.1908 4.4285 11C4.4285 9.80915 5.39837 8.83929 6.58922 8.83929C7.78006 8.83929 8.74993 9.80915 8.74993 11C8.74993 12.1908 7.78006 13.1607 6.58922 13.1607ZM17.3928 18.9554C16.6881 18.9554 16.116 18.3833 16.116 17.6786C16.116 16.9739 16.6881 16.4018 17.3928 16.4018C18.0975 16.4018 18.6696 16.9739 18.6696 17.6786C18.6696 18.3833 18.0975 18.9554 17.3928 18.9554Z" fill="#1890FF"/>
</svg>
