<svg width="20" height="20" viewBox="0 0 20 20" fill="none" xmlns="http://www.w3.org/2000/svg">
<path d="M2.18774 11.0414H3.99577C4.09845 11.0414 4.19666 10.9968 4.26586 10.9186L9.15202 5.28695L9.15202 17.8561C9.15202 17.9544 9.23238 18.0347 9.33059 18.0347H10.6699C10.7681 18.0347 10.8484 17.9544 10.8484 17.8561L10.8484 5.28695L15.7346 10.9186C15.8016 10.9968 15.8998 11.0414 16.0047 11.0414H17.8127C17.9645 11.0414 18.0471 10.8606 17.9467 10.7468L10.5382 2.20883C10.4712 2.13157 10.3884 2.06961 10.2954 2.02715C10.2024 1.98468 10.1014 1.9627 9.99912 1.9627C9.89688 1.9627 9.79583 1.98468 9.70282 2.02715C9.60982 2.06961 9.52702 2.13157 9.46006 2.20883L2.05381 10.7468C1.95336 10.8628 2.03595 11.0414 2.18774 11.0414Z" fill="#2F80ED"/>
</svg>
