<svg width="130" height="130" viewBox="0 0 130 130" fill="none" xmlns="http://www.w3.org/2000/svg">
<g clip-path="url(#clip0)">
<path d="M130 59.2794L94.5395 94.7755H35.4605L0 59.2743L23.3061 39.429H106.813L130 59.2794Z" fill="#FCCA62"/>
<path d="M130 59.2794L94.5395 94.7755H65V39.429H106.813L130 59.2794Z" fill="#FEB948"/>
<path d="M107.148 3.80859V81.5268L90.7309 94.7756H39.2691L23.1055 81.7223V3.80859C23.1055 1.70625 24.8117 0 26.9141 0H103.34C105.442 0 107.148 1.70625 107.148 3.80859Z" fill="#EEF9FF"/>
<path d="M107.148 3.80859V81.5268L90.7309 94.7756H65V0H103.34C105.442 0 107.148 1.70625 107.148 3.80859Z" fill="#C4EAF5"/>
<path d="M0 59.254V126.191C0 127.238 0.423262 128.186 1.10729 128.875L38.2162 95.8978L39.2684 90.9662L0 59.254Z" fill="#FFF797"/>
<path d="M130 126.191V59.2794L90.7317 90.9664L91.8621 95.898L128.893 128.875C129.577 128.186 130 127.238 130 126.191Z" fill="#FEE07D"/>
<path d="M90.7313 90.9666L90.7305 90.9671H39.2688L39.268 90.9666L1.10693 128.875C1.79705 129.569 2.7525 130 3.80824 130H126.191C127.247 130 128.202 129.569 128.892 128.875L90.7313 90.9666Z" fill="#FEE07D"/>
<path d="M128.893 128.875C128.202 129.568 127.248 130 126.191 130H65V90.967H90.7309L128.893 128.875Z" fill="#FCCA62"/>
<path d="M87.8516 45.957H42.1484C40.0451 45.957 38.3398 47.6623 38.3398 49.7656C38.3398 51.869 40.0451 53.5742 42.1484 53.5742H87.8516C89.9549 53.5742 91.6602 51.869 91.6602 49.7656C91.6602 47.6623 89.9549 45.957 87.8516 45.957Z" fill="#5CA7E5"/>
<path d="M91.6602 49.7656C91.6602 51.868 89.9539 53.5742 87.8516 53.5742H65V45.957H87.8516C89.9539 45.957 91.6602 47.6633 91.6602 49.7656Z" fill="#3187CE"/>
<path d="M87.8516 30.7227H42.1484C40.0451 30.7227 38.3398 32.4279 38.3398 34.5312C38.3398 36.6346 40.0451 38.3398 42.1484 38.3398H87.8516C89.9549 38.3398 91.6602 36.6346 91.6602 34.5312C91.6602 32.4279 89.9549 30.7227 87.8516 30.7227Z" fill="#5CA7E5"/>
<path d="M91.6602 34.5312C91.6602 36.6336 89.9539 38.3398 87.8516 38.3398H65V30.7227H87.8516C89.9539 30.7227 91.6602 32.4289 91.6602 34.5312Z" fill="#3187CE"/>
<path d="M42.1484 23.1055H61.1914C63.2948 23.1055 65 21.4002 65 19.2969C65 17.1935 63.2948 15.4883 61.1914 15.4883H42.1484C40.0451 15.4883 38.3398 17.1935 38.3398 19.2969C38.3398 21.4002 40.0451 23.1055 42.1484 23.1055Z" fill="#5CA7E5"/>
<path d="M76.4258 23.1055H87.8516C89.9549 23.1055 91.6602 21.4002 91.6602 19.2969C91.6602 17.1935 89.9549 15.4883 87.8516 15.4883H76.4258C74.3224 15.4883 72.6172 17.1935 72.6172 19.2969C72.6172 21.4002 74.3224 23.1055 76.4258 23.1055Z" fill="#3187CE"/>
<path d="M53.5742 61.1914H42.1484C40.0451 61.1914 38.3398 62.8966 38.3398 65C38.3398 67.1034 40.0451 68.8086 42.1484 68.8086H53.5742C55.6776 68.8086 57.3828 67.1034 57.3828 65C57.3828 62.8966 55.6776 61.1914 53.5742 61.1914Z" fill="#5CA7E5"/>
<path d="M87.8516 61.1914H68.8086C66.7052 61.1914 65 62.8966 65 65C65 67.1034 66.7052 68.8086 68.8086 68.8086H87.8516C89.9549 68.8086 91.6602 67.1034 91.6602 65C91.6602 62.8966 89.9549 61.1914 87.8516 61.1914Z" fill="#3187CE"/>
</g>
<defs>
<clipPath id="clip0">
<rect width="130" height="130" fill="white"/>
</clipPath>
</defs>
</svg>
