<svg width="221" height="98" viewBox="0 0 221 98" fill="none" xmlns="http://www.w3.org/2000/svg">
<path d="M38.5439 61L34.4297 45.1445H37.5234L40.2627 56.1123L43.0449 45.1445H45.7412L48.9209 55.9941L51.499 45.1445H54.5605L50.457 61H47.7822L44.4521 49.6885L41.4014 61H38.5439ZM62.7512 61V45.1445H73.1389V47.5508H65.9309V51.7617H72.3225V54.0605H65.9309V58.5938H73.2571V61H62.7512ZM82.3716 61V45.1445H85.5621V58.5078H92.19V61H82.3716ZM107.32 61.2793C106.017 61.2793 104.964 61.1862 104.162 61C103.36 60.8138 102.715 60.5667 102.228 60.2588C101.749 59.9508 101.365 59.557 101.079 59.0771C100.792 58.5902 100.599 58.0924 100.499 57.584C100.406 57.0755 100.359 56.4811 100.359 55.8008V50.5049C100.359 48.6143 100.742 47.2894 101.509 46.5303C102.275 45.764 103.292 45.2734 104.559 45.0586C105.276 44.9297 106.085 44.8688 106.987 44.876C110.26 44.876 112.211 45.7712 112.842 47.5615C113.128 48.3636 113.271 49.3232 113.271 50.4404V50.6338L110.145 50.999V50.1934C110.145 49.0905 109.927 48.3457 109.49 47.959C109.06 47.5723 108.233 47.3789 107.009 47.3789C105.784 47.3789 104.9 47.5758 104.355 47.9697C103.818 48.3564 103.55 49.0762 103.55 50.1289V56.123C103.55 57.1829 103.825 57.8919 104.377 58.25C104.935 58.6009 105.82 58.7764 107.03 58.7764C107.667 58.7764 108.172 58.7441 108.545 58.6797C108.917 58.6081 109.229 58.4684 109.479 58.2607C109.737 58.0531 109.913 57.7773 110.006 57.4336C110.099 57.0898 110.145 56.6315 110.145 56.0586V55.5537H113.271V55.8438C113.271 57.4121 113.039 58.5472 112.573 59.249C112.115 59.9437 111.452 60.4557 110.586 60.7852C109.719 61.1146 108.631 61.2793 107.32 61.2793ZM129.067 61.2793C125.959 61.2793 123.911 60.5059 122.923 58.959C122.364 58.0996 122.085 56.986 122.085 55.6182V50.6553C122.085 48.4281 122.776 46.8704 124.158 45.9824C125.297 45.252 126.948 44.8831 129.11 44.876C132.125 44.876 134.116 45.6995 135.083 47.3467C135.627 48.2705 135.9 49.4271 135.9 50.8164V55.4463C135.9 57.609 135.219 59.1702 133.859 60.1299C132.77 60.8962 131.173 61.2793 129.067 61.2793ZM125.286 55.9727C125.286 57.0111 125.605 57.738 126.242 58.1533C126.88 58.5687 127.829 58.7764 129.089 58.7764C130.357 58.7764 131.273 58.5723 131.839 58.1641C132.412 57.7487 132.698 57.0182 132.698 55.9727V50.2256C132.698 49.1943 132.408 48.4639 131.828 48.0342C131.248 47.5973 130.335 47.3789 129.089 47.3789C127.85 47.3789 126.905 47.5938 126.253 48.0234C125.609 48.4531 125.286 49.1872 125.286 50.2256V55.9727ZM145.379 61V45.1445H148.892L153.404 52.8252L157.851 45.1445H161.428V61H158.442V49.2803L154.478 56.3916H152.34L148.366 49.3232V61H145.379ZM171.23 61V45.1445H181.618V47.5508H174.41V51.7617H180.801V54.0605H174.41V58.5938H181.736V61H171.23Z" fill="#FFC813"/>
<rect x="176.8" y="14.3354" width="6.59701" height="6.59701" transform="rotate(-42.298 176.8 14.3354)" fill="#FFD400"/>
<rect x="113.469" y="28.8184" width="6.59701" height="6.59701" transform="rotate(-75.5474 113.469 28.8184)" fill="#6FCAFC"/>
<rect x="186.036" y="95.4478" width="6.59701" height="6.59701" transform="rotate(-75.5474 186.036 95.4478)" fill="#6FCAFC"/>
<circle cx="115.448" cy="87.0807" r="2.29851" fill="white" stroke="#FFD400" stroke-width="2"/>
<circle cx="15.8328" cy="27.0475" r="2.29851" fill="white" stroke="#FFD400" stroke-width="2"/>
<line x1="215.934" y1="40.7178" x2="221" y2="40.7178" stroke="#6FCAFC"/>
<line x1="205.167" y1="40.7178" x2="210.234" y2="40.7178" stroke="#6FCAFC"/>
<line x1="212.9" y1="38.0513" x2="212.9" y2="32.9848" stroke="#6FCAFC"/>
<line x1="212.9" y1="48.8179" x2="212.9" y2="43.7514" stroke="#6FCAFC"/>
<line x1="214.947" y1="38.747" x2="218.529" y2="35.1645" stroke="#6FCAFC"/>
<line x1="206.713" y1="46.3471" x2="210.296" y2="42.7646" stroke="#6FCAFC"/>
<line x1="207.421" y1="35.1645" x2="211.003" y2="38.7471" stroke="#6FCAFC"/>
<line x1="215.654" y1="42.7641" x2="219.237" y2="46.3467" stroke="#6FCAFC"/>
<line x1="10.7662" y1="71.0645" x2="15.8327" y2="71.0645" stroke="#FFB800"/>
<line y1="71.0645" x2="5.0665" y2="71.0645" stroke="#FFB800"/>
<line x1="7.73303" y1="68.3979" x2="7.73303" y2="63.3314" stroke="#FFB800"/>
<line x1="7.73303" y1="79.1646" x2="7.73303" y2="74.098" stroke="#FFB800"/>
<line x1="9.77938" y1="69.0937" x2="13.3619" y2="65.5112" stroke="#FFB800"/>
<line x1="1.54635" y1="76.6933" x2="5.12891" y2="73.1108" stroke="#FFB800"/>
<line x1="2.25346" y1="65.5112" x2="5.83602" y2="69.0938" stroke="#FFB800"/>
<line x1="10.4865" y1="73.1108" x2="14.069" y2="76.6934" stroke="#FFB800"/>
<line x1="62.223" y1="7.73291" x2="67.2895" y2="7.73291" stroke="#6FCAFC"/>
<line x1="51.4568" y1="7.73291" x2="56.5233" y2="7.73291" stroke="#6FCAFC"/>
<line x1="59.1898" y1="5.06641" x2="59.1898" y2="-9.87053e-05" stroke="#6FCAFC"/>
<line x1="59.1898" y1="15.833" x2="59.1898" y2="10.7665" stroke="#6FCAFC"/>
<line x1="61.2362" y1="5.76217" x2="64.8187" y2="2.17961" stroke="#6FCAFC"/>
<line x1="53.0031" y1="13.3618" x2="56.5857" y2="9.77922" stroke="#6FCAFC"/>
<line x1="53.7102" y1="2.17965" x2="57.2928" y2="5.76221" stroke="#6FCAFC"/>
<line x1="61.9433" y1="9.77926" x2="65.5258" y2="13.3618" stroke="#6FCAFC"/>
<path d="M55.8427 83.7335L55.2678 91.7113L48.6463 87.2245L55.8427 83.7335Z" fill="#6FCAFC"/>
</svg>
